<svg id="Layer_1" data-name="Layer 1" xmlns="http://www.w3.org/2000/svg" viewBox="0 0 265.12 269.05"><defs><style>.cls-1{fill:#d1d3d4;}.cls-2{fill:#fff;}.cls-3{fill:#58595b;}.cls-4{fill:#231f20;}.cls-5,.cls-6{fill:#e6e7e8;}.cls-5{opacity:0.5;}.cls-7{fill:none;}</style></defs><title>logo_bw</title><path class="cls-1" d="M229.5,134.52a97.26,97.26,0,0,1-97.26,97.26C99,231.78,67.35,213.57,50,186.41c-3.69-5.77-15.93-25.48-15-51.89,1.55-43.09,38-97.25,97.25-97.25A97.26,97.26,0,0,1,229.5,134.52Z"/><circle class="cls-2" cx="158.57" cy="124.3" r="23.72"/><path class="cls-3" d="M229.5,134.35c-9.83,6.27-25.05,13.76-43.58,13.35-13.13-.29-17.37-4.32-44.78-13.35-28-9.21-42-13.82-58.7-13.53C71.69,121,55.16,123.4,35,134.52L71.55,175l72.24-2.12,73.51-5.3Z"/><path class="cls-4" d="M35,134.52s33.3,24.95,80.23,25.63,43.42-37.55,97.47-35.79L229,124.3s14.9,69.49-59.32,99.9c-45.16,18.5-89.84.15-113.83-29.66C32.74,165.86,35,134.52,35,134.52Z"/><circle class="cls-5" cx="100.37" cy="55.28" r="1.4"/><circle class="cls-6" cx="116.63" cy="74.6" r="1.4"/><circle class="cls-5" cx="132.22" cy="52.48" r="1.4"/><circle class="cls-5" cx="138.35" cy="83.28" r="1.4"/><circle class="cls-6" cx="97.56" cy="99.22" r="1.4"/><circle class="cls-5" cx="72.95" cy="77.4" r="1.4"/><circle class="cls-6" cx="158.57" cy="57.28" r="1.4"/><circle class="cls-6" cx="182.81" cy="88.76" r="1.4"/><path class="cls-7" d="M37,134.52s32.95,24.95,79.4,25.63,43-37.55,96.47-35.79l16.1-.06"/></svg>